<svg width="223" height="144" viewBox="0 0 223 144" fill="none" xmlns="http://www.w3.org/2000/svg">
<g clip-path="url(#clip0_43_593)">
<path d="M0 30H32V42H0V30Z" fill="#E70011"/>
<path d="M0 42H32V54H0V42Z" fill="white"/>
</g>
<g clip-path="url(#clip1_43_593)">
<path d="M9 65H30.3333V73H9V65Z" fill="#0038A8"/>
<path d="M9 73H30.3333V81H9V73Z" fill="#CE1126"/>
<path d="M22.8567 73L9 81V65" fill="white"/>
<path d="M9.88989 66.4136L10.3666 66.8336L10.9199 66.5269L10.6732 67.1102L11.1399 67.5436L10.5066 67.4902L10.2366 68.0636L10.0932 67.4469L9.46655 67.3669L10.0099 67.0336L9.88989 66.4136ZM20.6832 72.1569L20.6966 72.7902L21.2966 73.0002L20.6966 73.2069L20.6832 73.8402L20.2999 73.3369L19.6932 73.5202L20.0532 73.0002L19.6932 72.4802L20.2999 72.6636L20.6832 72.1569ZM10.2399 77.9369L10.5066 78.5102L11.1399 78.4569L10.6766 78.8902L10.9232 79.4736L10.3699 79.1702L9.88989 79.5836L10.0099 78.9602L9.46655 78.6336L10.0966 78.5536L10.2399 77.9369ZM14.0466 69.6369L13.8399 69.8436L13.9432 71.4102L13.8432 71.4202L13.6532 69.9902L13.4832 70.1569L13.7366 71.4369C13.5317 71.4772 13.3369 71.5577 13.1632 71.6736L12.4399 70.5936H12.1999L13.0799 71.7369C13.0525 71.7583 13.0258 71.7805 12.9999 71.8036L11.9632 70.6202H11.6699V70.9136L12.8499 71.9469L12.7832 72.0302L11.6399 71.1536V71.3902L12.7232 72.1136C12.6099 72.2869 12.5266 72.4802 12.4866 72.6869L11.2099 72.4336L11.0399 72.6002L12.4699 72.7902C12.4632 72.8236 12.4599 72.8602 12.4599 72.8936L10.8932 72.7936L10.6866 73.0002L10.8932 73.2069L12.4599 73.1036L12.4699 73.2069L11.0399 73.3969L11.2066 73.5636L12.4866 73.3102C12.5269 73.5151 12.6073 73.7099 12.7232 73.8836L11.6399 74.6069V74.8469L12.7832 73.9702C12.8046 73.9976 12.8268 74.0243 12.8499 74.0502L11.6699 75.0836V75.3769H11.9666L12.9999 74.1969L13.0832 74.2636L12.1999 75.4069H12.4399L13.1632 74.3236C13.3332 74.4369 13.5299 74.5202 13.7366 74.5602L13.4832 75.8402L13.6499 76.0069L13.8399 74.5769C13.8732 74.5836 13.9066 74.5869 13.9432 74.5869L13.8432 76.1536L14.0466 76.3602L14.2566 76.1536L14.1532 74.5869L14.2532 74.5769L14.4432 76.0102L14.6132 75.8402L14.3599 74.5602C14.5647 74.5199 14.7596 74.4395 14.9332 74.3236L15.6566 75.4069H15.8966L15.0166 74.2636C15.0439 74.2422 15.0706 74.22 15.0966 74.1969L16.1332 75.3769H16.4266V75.0836L15.2466 74.0502L15.3132 73.9702L16.4566 74.8469V74.6069L15.3732 73.8836C15.4866 73.7136 15.5699 73.5169 15.6099 73.3102L16.8866 73.5636L17.0566 73.3969L15.6266 73.2069C15.6332 73.1736 15.6366 73.1402 15.6366 73.1036L17.2032 73.2036L17.4099 73.0002L17.2032 72.7936L15.6366 72.8936L15.6266 72.7936L17.0566 72.6036L16.8899 72.4369L15.6099 72.6869C15.5696 72.4821 15.4891 72.2872 15.3732 72.1136L16.4566 71.3902V71.1536L15.3132 72.0302C15.2919 72.0029 15.2696 71.9762 15.2466 71.9502L16.4266 70.9169V70.6202H16.1332L15.0999 71.8036C15.0729 71.7804 15.0451 71.7582 15.0166 71.7369L15.8966 70.5936H15.6566L14.9332 71.6736C14.7632 71.5602 14.5666 71.4769 14.3599 71.4369L14.6132 70.1602L14.4466 69.9936L14.2566 71.4202L14.1532 71.4102L14.2532 69.8436L14.0466 69.6369Z" fill="#FCD116"/>
</g>
<g clip-path="url(#clip2_43_593)">
<path d="M10 125H31.3333V141H10V125Z" fill="#FECB00"/>
<path d="M10 130.333H31.3333V141H10V130.333Z" fill="#34B233"/>
<path d="M10 135.667H31.3333V141H10V135.667Z" fill="#EA2839"/>
<path d="M20.6667 127.667L22.4355 133.563H18.8979L20.6667 127.667Z" fill="white"/>
<path d="M17.2011 138.333L19.2357 132.524L22.0977 134.603L17.2011 138.333Z" fill="white"/>
<path d="M15.0593 131.742L21.2133 131.881L20.1201 135.246L15.0593 131.742Z" fill="white"/>
<path d="M26.2741 131.741L21.2133 135.246L20.1201 131.881L26.2741 131.741Z" fill="white"/>
<path d="M24.1322 138.334L19.2357 134.603L22.0977 132.524L24.1322 138.334Z" fill="white"/>
</g>
<g clip-path="url(#clip3_43_593)">
<mask id="mask0_43_593" style="mask-type:luminance" maskUnits="userSpaceOnUse" x="9" y="0" width="22" height="16">
<path d="M9 0H30.3344V16H9V0Z" fill="white"/>
</mask>
<g mask="url(#mask0_43_593)">
<path fill-rule="evenodd" clip-rule="evenodd" d="M9 0H41.225V16H9V0Z" fill="#CB000F"/>
<path fill-rule="evenodd" clip-rule="evenodd" d="M9 0C9.1 0 25 8.02188 25 8.02188L9 16V0Z" fill="#F8C00C"/>
<path fill-rule="evenodd" clip-rule="evenodd" d="M9 0C9.06562 0 19.6437 8.02188 19.6437 8.02188L9 16V0Z" fill="black"/>
<path fill-rule="evenodd" clip-rule="evenodd" d="M14.8658 9.31865L12.9689 8.89678L12.0001 10.5468L11.8439 8.68115L9.94702 8.26553L11.6626 7.4874L11.5595 5.63428L12.8158 6.99053L14.547 6.1999L13.6439 7.8874L14.8689 9.31865H14.8658Z" fill="white"/>
</g>
</g>
<path d="M49.0961 10.624H47.1521V3.28001L44.0801 4.72001C43.8721 4.64001 43.6961 4.52001 43.5521 4.36001C43.4241 4.20001 43.3601 4.00001 43.3601 3.76001C43.3601 3.29601 43.6481 2.94401 44.2241 2.70401L47.5841 1.24001H48.0401C48.3601 1.24001 48.6161 1.33601 48.8081 1.52801C49.0001 1.72001 49.0961 1.97601 49.0961 2.29601V10.624ZM47.1521 9.66401H49.0961V16.024C49.0001 16.056 48.8721 16.088 48.7121 16.12C48.5521 16.168 48.3761 16.192 48.1841 16.192C47.8481 16.192 47.5921 16.12 47.4161 15.976C47.2401 15.832 47.1521 15.608 47.1521 15.304V9.66401Z" fill="white"/>
<path d="M62.6469 3.06401L62.5269 1.40801H68.1189C68.1669 1.47201 68.2149 1.57601 68.2629 1.72001C68.3109 1.86401 68.3349 2.01601 68.3349 2.17601C68.3349 2.43201 68.2709 2.64801 68.1429 2.82401C68.0149 2.98401 67.8309 3.06401 67.5909 3.06401H62.6469ZM62.6949 1.40801L62.8149 3.06401H57.1989C57.1509 2.98401 57.1029 2.87201 57.0549 2.72801C57.0069 2.58401 56.9829 2.43201 56.9829 2.27201C56.9829 2.00001 57.0469 1.79201 57.1749 1.64801C57.3029 1.48801 57.4869 1.40801 57.7269 1.40801H62.6949ZM61.6869 2.41601H63.6309V15.952C63.5509 15.984 63.4229 16.016 63.2469 16.048C63.0869 16.096 62.9189 16.12 62.7429 16.12C62.3909 16.12 62.1269 16.048 61.9509 15.904C61.7749 15.76 61.6869 15.536 61.6869 15.232V2.41601Z" fill="white"/>
<path d="M70.4602 1.40801C70.4602 1.07201 70.5802 0.792009 70.8202 0.568009C71.0602 0.328008 71.3562 0.208008 71.7082 0.208008C72.0762 0.208008 72.3722 0.328008 72.5962 0.568009C72.8202 0.792009 72.9322 1.07201 72.9322 1.40801C72.9322 1.74401 72.8202 2.03201 72.5962 2.27201C72.3722 2.49601 72.0762 2.60801 71.7082 2.60801C71.3562 2.60801 71.0602 2.49601 70.8202 2.27201C70.5802 2.03201 70.4602 1.74401 70.4602 1.40801ZM70.7482 9.66401H72.6682V15.952C72.5882 15.984 72.4682 16.016 72.3082 16.048C72.1482 16.096 71.9722 16.12 71.7802 16.12C71.4442 16.12 71.1882 16.056 71.0122 15.928C70.8362 15.784 70.7482 15.56 70.7482 15.256V9.66401ZM72.6682 10.6H70.7482V4.96001C70.8282 4.92801 70.9482 4.89601 71.1082 4.86401C71.2842 4.81601 71.4682 4.79201 71.6602 4.79201C71.9962 4.79201 72.2442 4.86401 72.4042 5.00801C72.5802 5.13601 72.6682 5.36001 72.6682 5.68001V10.6Z" fill="white"/>
<path d="M85.3693 8.32001V11.08H83.4493V8.46401C83.4493 7.68001 83.2173 7.10401 82.7533 6.73601C82.3053 6.36801 81.7053 6.18401 80.9533 6.18401C80.4573 6.18401 79.9773 6.26401 79.5133 6.42401C79.0493 6.58401 78.6573 6.76801 78.3373 6.97601V11.08H76.4173V7.07201C76.4173 6.75201 76.4813 6.48001 76.6093 6.25601C76.7533 6.03201 76.9933 5.81601 77.3293 5.60801C77.7613 5.33601 78.3053 5.10401 78.9613 4.91201C79.6333 4.70401 80.3053 4.60001 80.9773 4.60001C81.7933 4.60001 82.5133 4.72801 83.1373 4.98401C83.7613 5.22401 84.2253 5.56001 84.5293 5.99201C84.6253 6.08801 84.7053 6.17601 84.7693 6.25601C84.8333 6.33601 84.8973 6.44001 84.9613 6.56801C85.0733 6.76001 85.1693 7.00801 85.2493 7.31201C85.3293 7.61601 85.3693 7.95201 85.3693 8.32001ZM92.4013 8.36801V11.08H90.4813V8.46401C90.4813 7.68001 90.2573 7.10401 89.8093 6.73601C89.3613 6.36801 88.7613 6.18401 88.0093 6.18401C87.4493 6.18401 86.9053 6.30401 86.3773 6.54401C85.8653 6.76801 85.4013 7.09601 84.9853 7.52801L84.2173 6.13601C84.6333 5.72001 85.1773 5.36001 85.8493 5.05601C86.5213 4.75201 87.2893 4.60001 88.1533 4.60001C89.0173 4.60001 89.7613 4.73601 90.3853 5.00801C91.0253 5.28001 91.5213 5.69601 91.8733 6.25601C92.2253 6.81601 92.4013 7.52001 92.4013 8.36801ZM76.4173 9.80801H78.3373V15.952C78.2573 15.984 78.1373 16.016 77.9773 16.048C77.8173 16.096 77.6413 16.12 77.4493 16.12C77.1133 16.12 76.8573 16.056 76.6813 15.928C76.5053 15.784 76.4173 15.56 76.4173 15.256V9.80801ZM83.4493 9.80801H85.3693V15.952C85.2893 15.984 85.1613 16.016 84.9853 16.048C84.8253 16.096 84.6573 16.12 84.4813 16.12C84.1293 16.12 83.8653 16.056 83.6893 15.928C83.5293 15.784 83.4493 15.56 83.4493 15.256V9.80801ZM90.4813 9.80801H92.4013V15.952C92.3213 15.984 92.1933 16.016 92.0173 16.048C91.8573 16.096 91.6893 16.12 91.5133 16.12C91.1613 16.12 90.8973 16.056 90.7213 15.928C90.5613 15.784 90.4813 15.56 90.4813 15.256V9.80801Z" fill="white"/>
<path d="M106.307 10.456C106.307 11.64 106.083 12.672 105.635 13.552C105.187 14.432 104.555 15.112 103.739 15.592C102.923 16.072 101.963 16.312 100.859 16.312C99.755 16.312 98.787 16.072 97.955 15.592C97.139 15.112 96.507 14.432 96.059 13.552C95.611 12.672 95.387 11.64 95.387 10.456C95.387 9.25601 95.611 8.22401 96.059 7.36001C96.523 6.48001 97.163 5.80001 97.979 5.32001C98.811 4.84001 99.771 4.60001 100.859 4.60001C101.947 4.60001 102.899 4.84001 103.715 5.32001C104.531 5.80001 105.163 6.48001 105.611 7.36001C106.075 8.22401 106.307 9.25601 106.307 10.456ZM100.859 6.18401C99.787 6.18401 98.931 6.56801 98.291 7.33601C97.667 8.08801 97.355 9.12801 97.355 10.456C97.355 11.8 97.659 12.848 98.267 13.6C98.891 14.352 99.755 14.728 100.859 14.728C101.947 14.728 102.795 14.352 103.403 13.6C104.027 12.832 104.339 11.784 104.339 10.456C104.339 9.12801 104.027 8.08801 103.403 7.33601C102.795 6.56801 101.947 6.18401 100.859 6.18401Z" fill="white"/>
<path d="M111.197 6.97601V10.768H109.277V7.12001C109.277 6.75201 109.341 6.46401 109.469 6.25601C109.613 6.03201 109.845 5.81601 110.165 5.60801C110.581 5.33601 111.149 5.10401 111.869 4.91201C112.589 4.70401 113.389 4.60001 114.269 4.60001C115.549 4.60001 116.189 4.92001 116.189 5.56001C116.189 5.72001 116.165 5.87201 116.117 6.01601C116.069 6.14401 116.005 6.25601 115.925 6.35201C115.765 6.32001 115.557 6.28801 115.301 6.25601C115.045 6.22401 114.789 6.20801 114.533 6.20801C113.797 6.20801 113.149 6.28801 112.589 6.44801C112.029 6.59201 111.565 6.76801 111.197 6.97601ZM109.277 9.66401L111.197 9.95201V15.952C111.117 15.984 110.997 16.016 110.837 16.048C110.677 16.096 110.501 16.12 110.309 16.12C109.973 16.12 109.717 16.056 109.541 15.928C109.365 15.784 109.277 15.56 109.277 15.256V9.66401Z" fill="white"/>
<path d="M123.581 7.48001H125.549V15.808L124.637 16C124.333 16 124.077 15.904 123.869 15.712C123.677 15.504 123.581 15.248 123.581 14.944V7.48001ZM124.637 16V14.32H132.437C132.517 14.384 132.581 14.488 132.629 14.632C132.677 14.776 132.701 14.936 132.701 15.112C132.701 15.384 132.629 15.6 132.485 15.76C132.341 15.92 132.149 16 131.909 16H124.637ZM125.549 8.92001H123.581V1.45601C123.661 1.42401 123.781 1.39201 123.941 1.36001C124.117 1.31201 124.301 1.28801 124.493 1.28801C124.845 1.28801 125.109 1.36001 125.285 1.50401C125.461 1.63201 125.549 1.85601 125.549 2.17601V8.92001Z" fill="white"/>
<path d="M135.73 11.68L135.634 10.168L142.882 9.18401C142.818 8.30401 142.514 7.58401 141.97 7.02401C141.426 6.44801 140.674 6.16001 139.714 6.16001C138.722 6.16001 137.898 6.52001 137.242 7.24001C136.602 7.94401 136.282 8.96001 136.282 10.288V10.816C136.394 12.096 136.81 13.072 137.53 13.744C138.266 14.4 139.266 14.728 140.53 14.728C141.202 14.728 141.81 14.616 142.354 14.392C142.898 14.168 143.33 13.928 143.65 13.672C143.826 13.784 143.962 13.92 144.058 14.08C144.17 14.224 144.226 14.392 144.226 14.584C144.226 14.888 144.05 15.176 143.698 15.448C143.362 15.704 142.906 15.912 142.33 16.072C141.77 16.232 141.138 16.312 140.434 16.312C139.202 16.312 138.13 16.088 137.218 15.64C136.322 15.192 135.626 14.528 135.13 13.648C134.65 12.752 134.41 11.664 134.41 10.384C134.41 9.47201 134.538 8.66401 134.794 7.96001C135.066 7.24001 135.434 6.63201 135.898 6.13601C136.378 5.64001 136.946 5.26401 137.602 5.00801C138.258 4.73601 138.97 4.60001 139.738 4.60001C140.714 4.60001 141.57 4.80801 142.306 5.22401C143.058 5.64001 143.642 6.22401 144.058 6.97601C144.49 7.71201 144.706 8.56001 144.706 9.52001C144.706 9.87201 144.626 10.128 144.466 10.288C144.306 10.432 144.082 10.52 143.794 10.552L135.73 11.68Z" fill="white"/>
<path d="M155.444 13.048C155.444 14.072 155.068 14.872 154.316 15.448C153.564 16.024 152.476 16.312 151.052 16.312C149.836 16.312 148.844 16.128 148.076 15.76C147.308 15.376 146.924 14.96 146.924 14.512C146.924 14.32 146.972 14.136 147.068 13.96C147.18 13.768 147.34 13.616 147.548 13.504C147.98 13.808 148.484 14.088 149.06 14.344C149.636 14.6 150.292 14.728 151.028 14.728C152.692 14.728 153.524 14.168 153.524 13.048C153.524 12.584 153.38 12.208 153.092 11.92C152.82 11.616 152.412 11.4 151.868 11.272L149.876 10.744C148.9 10.504 148.188 10.136 147.74 9.64001C147.292 9.12801 147.068 8.49601 147.068 7.74401C147.068 6.89601 147.412 6.16001 148.1 5.53601C148.788 4.91201 149.836 4.60001 151.244 4.60001C151.996 4.60001 152.652 4.68001 153.212 4.84001C153.772 4.98401 154.204 5.18401 154.508 5.44001C154.828 5.68001 154.988 5.94401 154.988 6.23201C154.988 6.44001 154.932 6.62401 154.82 6.78401C154.724 6.94401 154.588 7.06401 154.412 7.14401C154.22 7.01601 153.972 6.88001 153.668 6.73601C153.38 6.57601 153.036 6.44801 152.636 6.35201C152.236 6.24001 151.796 6.18401 151.316 6.18401C150.612 6.18401 150.044 6.32001 149.612 6.59201C149.18 6.86401 148.964 7.24801 148.964 7.74401C148.964 8.09601 149.084 8.40801 149.324 8.68001C149.58 8.93601 149.98 9.12801 150.524 9.25601L152.18 9.66401C153.268 9.92001 154.084 10.328 154.628 10.888C155.172 11.432 155.444 12.152 155.444 13.048Z" fill="white"/>
<path d="M158.379 9.66401H160.299V12.976C160.299 13.616 160.483 14.072 160.851 14.344C161.219 14.6 161.723 14.728 162.363 14.728C162.635 14.728 162.939 14.68 163.275 14.584C163.611 14.488 163.891 14.376 164.115 14.248C164.211 14.344 164.299 14.464 164.379 14.608C164.459 14.752 164.499 14.92 164.499 15.112C164.499 15.464 164.291 15.752 163.875 15.976C163.459 16.2 162.883 16.312 162.147 16.312C161.027 16.312 160.115 16.064 159.411 15.568C158.723 15.072 158.379 14.248 158.379 13.096V9.66401ZM159.363 6.73601V5.15201H164.235C164.283 5.21601 164.331 5.32001 164.379 5.46401C164.427 5.60801 164.451 5.76001 164.451 5.92001C164.451 6.17601 164.387 6.37601 164.259 6.52001C164.131 6.66401 163.955 6.73601 163.731 6.73601H159.363ZM160.299 10.384H158.379V1.69601C158.459 1.66401 158.579 1.63201 158.739 1.60001C158.915 1.55201 159.099 1.52801 159.291 1.52801C159.627 1.52801 159.875 1.60001 160.035 1.74401C160.211 1.87201 160.299 2.08801 160.299 2.39201V10.384Z" fill="white"/>
<path d="M167.629 11.68L167.533 10.168L174.781 9.18401C174.717 8.30401 174.413 7.58401 173.869 7.02401C173.325 6.44801 172.573 6.16001 171.613 6.16001C170.621 6.16001 169.797 6.52001 169.141 7.24001C168.501 7.94401 168.181 8.96001 168.181 10.288V10.816C168.293 12.096 168.709 13.072 169.429 13.744C170.165 14.4 171.165 14.728 172.429 14.728C173.101 14.728 173.709 14.616 174.253 14.392C174.797 14.168 175.229 13.928 175.549 13.672C175.725 13.784 175.861 13.92 175.957 14.08C176.069 14.224 176.125 14.392 176.125 14.584C176.125 14.888 175.949 15.176 175.597 15.448C175.261 15.704 174.805 15.912 174.229 16.072C173.669 16.232 173.037 16.312 172.333 16.312C171.101 16.312 170.029 16.088 169.117 15.64C168.221 15.192 167.525 14.528 167.029 13.648C166.549 12.752 166.309 11.664 166.309 10.384C166.309 9.47201 166.437 8.66401 166.693 7.96001C166.965 7.24001 167.333 6.63201 167.797 6.13601C168.277 5.64001 168.845 5.26401 169.501 5.00801C170.157 4.73601 170.869 4.60001 171.637 4.60001C172.613 4.60001 173.469 4.80801 174.205 5.22401C174.957 5.64001 175.541 6.22401 175.957 6.97601C176.389 7.71201 176.605 8.56001 176.605 9.52001C176.605 9.87201 176.525 10.128 176.365 10.288C176.205 10.432 175.981 10.52 175.693 10.552L167.629 11.68Z" fill="white"/>
<path d="M45.0881 32.812C45.0881 32.188 45.3641 31.636 45.9161 31.156C46.4681 30.676 47.2121 30.304 48.1481 30.04C49.1081 29.776 50.2001 29.644 51.4241 29.644C53.1281 29.644 54.5681 29.92 55.7441 30.472C56.9441 31 57.8561 31.756 58.4801 32.74C59.1041 33.7 59.4161 34.816 59.4161 36.088C59.4161 37.384 59.0561 38.656 58.3361 39.904C57.6161 41.128 56.4401 42.436 54.8081 43.828L49.5161 48.472H59.2001C59.3201 48.64 59.4281 48.88 59.5241 49.192C59.6441 49.504 59.7041 49.84 59.7041 50.2C59.7041 50.824 59.5481 51.28 59.2361 51.568C58.9481 51.856 58.5761 52 58.1201 52H45.5201C45.1361 51.736 44.8361 51.4 44.6201 50.992C44.4281 50.584 44.3321 50.128 44.3321 49.624C44.3321 49.024 44.4521 48.52 44.6921 48.112C44.9321 47.68 45.2201 47.308 45.5561 46.996L51.2801 41.74C52.6721 40.516 53.6201 39.508 54.1241 38.716C54.6281 37.9 54.8801 37.096 54.8801 36.304C54.8801 35.392 54.5441 34.66 53.8721 34.108C53.2241 33.532 52.2641 33.244 50.9921 33.244C49.9841 33.244 49.0841 33.412 48.2921 33.748C47.5001 34.084 46.8401 34.432 46.3121 34.792C45.9761 34.6 45.6881 34.336 45.4481 34C45.2081 33.664 45.0881 33.268 45.0881 32.812Z" fill="white"/>
<path d="M71.5425 37.564H76.0785V51.928C75.8865 52 75.5985 52.06 75.2145 52.108C74.8305 52.18 74.4225 52.216 73.9905 52.216C73.1265 52.216 72.5025 52.06 72.1185 51.748C71.7345 51.412 71.5425 50.86 71.5425 50.092V37.564ZM76.0785 42.82H71.5425V30.148C71.7345 30.1 72.0345 30.04 72.4425 29.968C72.8505 29.896 73.2585 29.86 73.6665 29.86C74.5065 29.86 75.1185 30.016 75.5025 30.328C75.8865 30.616 76.0785 31.168 76.0785 31.984V42.82Z" fill="white"/>
<path d="M96.9658 40.876V44.368H92.5378V41.056C92.5378 40 92.2378 39.232 91.6378 38.752C91.0378 38.248 90.2338 37.996 89.2258 37.996C88.4818 37.996 87.8098 38.092 87.2098 38.284C86.6338 38.452 86.1178 38.656 85.6618 38.896V44.368H81.2338V38.608C81.2338 38.032 81.3538 37.564 81.5938 37.204C81.8338 36.82 82.1938 36.472 82.6738 36.16C83.3938 35.68 84.3178 35.284 85.4458 34.972C86.5978 34.636 87.8698 34.468 89.2618 34.468C91.6858 34.468 93.5698 35.008 94.9138 36.088C96.2818 37.168 96.9658 38.764 96.9658 40.876ZM81.2338 42.604H85.6618V51.928C85.4698 52 85.1938 52.06 84.8338 52.108C84.4738 52.18 84.0778 52.216 83.6458 52.216C82.8298 52.216 82.2178 52.072 81.8098 51.784C81.4258 51.472 81.2338 50.932 81.2338 50.164V42.604ZM92.5378 42.604H96.9658V51.928C96.7978 52 96.5218 52.06 96.1378 52.108C95.7778 52.18 95.3938 52.216 94.9858 52.216C94.1458 52.216 93.5218 52.072 93.1138 51.784C92.7298 51.472 92.5378 50.932 92.5378 50.164V42.604Z" fill="white"/>
<path d="M112.892 48.256V36.952H117.32V48.724C117.32 49.252 117.2 49.696 116.96 50.056C116.744 50.392 116.384 50.716 115.88 51.028C115.304 51.412 114.512 51.748 113.504 52.036C112.52 52.348 111.392 52.504 110.12 52.504C108.224 52.504 106.568 52.192 105.152 51.568C103.76 50.92 102.68 49.936 101.912 48.616C101.144 47.272 100.76 45.58 100.76 43.54C100.76 41.452 101.144 39.736 101.912 38.392C102.704 37.048 103.76 36.064 105.08 35.44C106.4 34.792 107.864 34.468 109.472 34.468C110.36 34.468 111.164 34.576 111.884 34.792C112.628 35.008 113.228 35.26 113.684 35.548V39.328C113.3 38.968 112.796 38.656 112.172 38.392C111.548 38.128 110.828 37.996 110.012 37.996C109.124 37.996 108.32 38.188 107.6 38.572C106.88 38.932 106.316 39.532 105.908 40.372C105.5 41.188 105.296 42.256 105.296 43.576C105.296 45.448 105.728 46.816 106.592 47.68C107.456 48.544 108.62 48.976 110.084 48.976C110.732 48.976 111.284 48.904 111.74 48.76C112.196 48.616 112.58 48.448 112.892 48.256ZM117.32 37.852L112.892 37.888V28.6C113.06 28.552 113.324 28.492 113.684 28.42C114.068 28.348 114.464 28.312 114.872 28.312C115.736 28.312 116.36 28.468 116.744 28.78C117.128 29.068 117.32 29.596 117.32 30.364V37.852Z" fill="white"/>
<path d="M138.719 43.468C138.719 45.316 138.359 46.924 137.639 48.292C136.919 49.636 135.899 50.68 134.579 51.424C133.283 52.144 131.747 52.504 129.971 52.504C128.195 52.504 126.647 52.144 125.327 51.424C124.007 50.68 122.975 49.636 122.231 48.292C121.511 46.948 121.151 45.34 121.151 43.468C121.151 41.62 121.523 40.024 122.267 38.68C123.011 37.336 124.043 36.304 125.363 35.584C126.683 34.84 128.219 34.468 129.971 34.468C131.723 34.468 133.247 34.84 134.543 35.584C135.863 36.304 136.883 37.348 137.603 38.716C138.347 40.06 138.719 41.644 138.719 43.468ZM129.971 37.996C128.651 37.996 127.607 38.476 126.839 39.436C126.095 40.396 125.723 41.74 125.723 43.468C125.723 45.244 126.095 46.612 126.839 47.572C127.583 48.508 128.627 48.976 129.971 48.976C131.291 48.976 132.323 48.496 133.067 47.536C133.811 46.576 134.183 45.22 134.183 43.468C134.183 41.764 133.811 40.432 133.067 39.472C132.323 38.488 131.291 37.996 129.971 37.996Z" fill="white"/>
<path d="M158.243 40.876V44.368H153.815V41.056C153.815 40 153.515 39.232 152.915 38.752C152.315 38.248 151.511 37.996 150.503 37.996C149.759 37.996 149.087 38.092 148.487 38.284C147.911 38.452 147.395 38.656 146.939 38.896V44.368H142.511V38.608C142.511 38.032 142.631 37.564 142.871 37.204C143.111 36.82 143.471 36.472 143.951 36.16C144.671 35.68 145.595 35.284 146.723 34.972C147.875 34.636 149.147 34.468 150.539 34.468C152.963 34.468 154.847 35.008 156.191 36.088C157.559 37.168 158.243 38.764 158.243 40.876ZM142.511 42.604H146.939V51.928C146.747 52 146.471 52.06 146.111 52.108C145.751 52.18 145.355 52.216 144.923 52.216C144.107 52.216 143.495 52.072 143.087 51.784C142.703 51.472 142.511 50.932 142.511 50.164V42.604ZM153.815 42.604H158.243V51.928C158.075 52 157.799 52.06 157.415 52.108C157.055 52.18 156.671 52.216 156.263 52.216C155.423 52.216 154.799 52.072 154.391 51.784C154.007 51.472 153.815 50.932 153.815 50.164V42.604Z" fill="white"/>
<path d="M164.846 45.736L164.666 42.64L174.314 41.2C174.242 40.288 173.894 39.496 173.27 38.824C172.646 38.152 171.734 37.816 170.534 37.816C169.31 37.816 168.29 38.248 167.474 39.112C166.658 39.952 166.238 41.164 166.214 42.748L166.322 44.62C166.538 46.156 167.126 47.284 168.086 48.004C169.07 48.724 170.306 49.084 171.794 49.084C172.802 49.084 173.738 48.94 174.602 48.652C175.466 48.34 176.15 48.004 176.654 47.644C176.99 47.86 177.254 48.136 177.446 48.472C177.662 48.784 177.77 49.132 177.77 49.516C177.77 50.14 177.494 50.68 176.942 51.136C176.39 51.568 175.646 51.904 174.71 52.144C173.774 52.384 172.706 52.504 171.506 52.504C169.658 52.504 168.014 52.168 166.574 51.496C165.158 50.8 164.042 49.768 163.226 48.4C162.434 47.032 162.038 45.328 162.038 43.288C162.038 41.824 162.266 40.54 162.722 39.436C163.178 38.332 163.79 37.42 164.558 36.7C165.35 35.956 166.262 35.404 167.294 35.044C168.326 34.66 169.406 34.468 170.534 34.468C172.118 34.468 173.498 34.792 174.674 35.44C175.874 36.064 176.81 36.94 177.482 38.068C178.178 39.196 178.526 40.492 178.526 41.956C178.526 42.628 178.346 43.132 177.986 43.468C177.65 43.78 177.17 43.972 176.546 44.044L164.846 45.736Z" fill="white"/>
<path d="M195.379 47.176C195.379 48.856 194.755 50.176 193.507 51.136C192.259 52.072 190.447 52.54 188.071 52.54C186.151 52.54 184.579 52.252 183.355 51.676C182.131 51.1 181.519 50.332 181.519 49.372C181.519 48.964 181.615 48.592 181.807 48.256C181.999 47.896 182.251 47.62 182.563 47.428C183.235 47.86 184.015 48.244 184.903 48.58C185.791 48.916 186.799 49.084 187.927 49.084C189.967 49.084 190.987 48.46 190.987 47.212C190.987 46.684 190.807 46.264 190.447 45.952C190.087 45.616 189.535 45.376 188.791 45.232L186.739 44.692C184.987 44.308 183.679 43.708 182.815 42.892C181.975 42.076 181.555 40.984 181.555 39.616C181.555 38.104 182.179 36.868 183.427 35.908C184.675 34.924 186.403 34.432 188.611 34.432C189.763 34.432 190.795 34.552 191.707 34.792C192.619 35.008 193.327 35.332 193.831 35.764C194.359 36.196 194.623 36.712 194.623 37.312C194.623 37.72 194.527 38.092 194.335 38.428C194.167 38.74 193.939 38.98 193.651 39.148C193.363 38.98 192.967 38.8 192.463 38.608C191.983 38.392 191.431 38.224 190.807 38.104C190.183 37.96 189.559 37.888 188.935 37.888C187.999 37.888 187.255 38.044 186.703 38.356C186.175 38.644 185.911 39.064 185.911 39.616C185.911 40.024 186.067 40.372 186.379 40.66C186.691 40.948 187.219 41.176 187.963 41.344L189.799 41.776C191.743 42.232 193.159 42.904 194.047 43.792C194.935 44.656 195.379 45.784 195.379 47.176Z" fill="white"/>
<path d="M198.862 29.896C198.862 29.2 199.102 28.612 199.582 28.132C200.086 27.652 200.71 27.412 201.454 27.412C202.222 27.412 202.834 27.652 203.29 28.132C203.77 28.612 204.01 29.2 204.01 29.896C204.01 30.568 203.77 31.156 203.29 31.66C202.834 32.14 202.222 32.38 201.454 32.38C200.71 32.38 200.086 32.14 199.582 31.66C199.102 31.156 198.862 30.568 198.862 29.896ZM199.222 42.496H203.686V51.928C203.494 52 203.218 52.06 202.858 52.108C202.498 52.18 202.102 52.216 201.67 52.216C200.854 52.216 200.242 52.072 199.834 51.784C199.426 51.472 199.222 50.932 199.222 50.164V42.496ZM203.686 44.764H199.222V35.116C199.414 35.044 199.69 34.984 200.05 34.936C200.434 34.864 200.842 34.828 201.274 34.828C202.114 34.828 202.726 34.984 203.11 35.296C203.494 35.584 203.686 36.124 203.686 36.916V44.764Z" fill="white"/>
<path d="M215.16 49.156C215.88 49.156 216.528 49.084 217.104 48.94C217.68 48.796 218.1 48.64 218.364 48.472V44.368L214.8 44.728C213.816 44.8 213.06 45.016 212.532 45.376C212.028 45.712 211.776 46.216 211.776 46.888C211.776 47.584 212.052 48.136 212.604 48.544C213.156 48.952 214.008 49.156 215.16 49.156ZM214.98 34.468C217.332 34.468 219.204 34.972 220.596 35.98C221.988 36.964 222.684 38.524 222.684 40.66V48.94C222.684 49.516 222.54 49.972 222.252 50.308C221.988 50.644 221.64 50.944 221.208 51.208C220.536 51.592 219.684 51.904 218.652 52.144C217.62 52.408 216.456 52.54 215.16 52.54C212.76 52.54 210.876 52.084 209.508 51.172C208.14 50.236 207.456 48.856 207.456 47.032C207.456 45.424 207.96 44.2 208.968 43.36C210 42.496 211.488 41.968 213.432 41.776L218.328 41.272V40.624C218.328 39.664 217.992 38.968 217.32 38.536C216.672 38.104 215.748 37.888 214.548 37.888C213.612 37.888 212.7 38.008 211.812 38.248C210.924 38.488 210.132 38.776 209.436 39.112C209.196 38.92 208.98 38.656 208.788 38.32C208.596 37.984 208.5 37.636 208.5 37.276C208.5 36.412 208.98 35.776 209.94 35.368C210.612 35.056 211.392 34.828 212.28 34.684C213.192 34.54 214.092 34.468 214.98 34.468Z" fill="white"/>
<path d="M48.2081 66.096C49.7281 66.096 50.9521 66.432 51.8801 67.104C52.8241 67.76 53.2961 68.752 53.2961 70.08C53.2961 70.72 53.1601 71.272 52.8881 71.736C52.6321 72.184 52.3201 72.536 51.9521 72.792C51.6001 73.048 51.2801 73.216 50.9921 73.296C51.4241 73.424 51.8481 73.648 52.2641 73.968C52.6801 74.272 53.0241 74.672 53.2961 75.168C53.5841 75.648 53.7281 76.232 53.7281 76.92C53.7281 77.88 53.4961 78.68 53.0321 79.32C52.5681 79.96 51.9281 80.448 51.1121 80.784C50.2961 81.104 49.3521 81.264 48.2801 81.264C47.4001 81.264 46.6161 81.176 45.9281 81C45.2561 80.808 44.7281 80.568 44.3441 80.28C43.9601 79.992 43.7681 79.688 43.7681 79.368C43.7681 79.144 43.8241 78.952 43.9361 78.792C44.0641 78.632 44.2241 78.496 44.4161 78.384C44.8321 78.704 45.3361 78.992 45.9281 79.248C46.5361 79.504 47.3201 79.632 48.2801 79.632C49.3361 79.632 50.1921 79.408 50.8481 78.96C51.5041 78.496 51.8321 77.8 51.8321 76.872C51.8321 76.056 51.5281 75.4 50.9201 74.904C50.3121 74.408 49.4321 74.16 48.2801 74.16H46.2881C46.2241 74.08 46.1681 73.968 46.1201 73.824C46.0721 73.664 46.0481 73.504 46.0481 73.344C46.0481 73.168 46.0721 73.008 46.1201 72.864C46.1681 72.72 46.2241 72.608 46.2881 72.528H48.1121C49.2961 72.528 50.1361 72.312 50.6321 71.88C51.1441 71.432 51.4001 70.848 51.4001 70.128C51.4001 69.344 51.1121 68.752 50.5361 68.352C49.9601 67.936 49.1761 67.728 48.1841 67.728C47.4161 67.728 46.7361 67.848 46.1441 68.088C45.5681 68.312 45.0881 68.56 44.7041 68.832C44.5441 68.752 44.4001 68.624 44.2721 68.448C44.1441 68.272 44.0801 68.08 44.0801 67.872C44.0801 67.584 44.2641 67.304 44.6321 67.032C45.0001 66.76 45.4961 66.536 46.1201 66.36C46.7441 66.184 47.4401 66.096 48.2081 66.096Z" fill="white"/>
<path d="M64.0254 75.096L62.0814 75.072V67.464C62.0814 67.144 62.1774 66.888 62.3694 66.696C62.5614 66.504 62.8174 66.408 63.1374 66.408C63.3134 66.408 63.4894 66.432 63.6654 66.48C63.8414 66.528 63.9614 66.568 64.0254 66.6V75.096ZM63.1374 74.712V73.056H70.2654C70.3134 73.136 70.3614 73.248 70.4094 73.392C70.4574 73.52 70.4814 73.664 70.4814 73.824C70.4814 74.08 70.4174 74.296 70.2894 74.472C70.1614 74.632 69.9774 74.712 69.7374 74.712H63.1374ZM63.1374 68.064V66.408H71.1054C71.1534 66.472 71.2014 66.576 71.2494 66.72C71.2974 66.864 71.3214 67.016 71.3214 67.176C71.3214 67.432 71.2574 67.648 71.1294 67.824C71.0014 67.984 70.8174 68.064 70.5774 68.064H63.1374ZM62.0814 72.456H64.0494V80.976C63.9694 80.992 63.8414 81.016 63.6654 81.048C63.5054 81.096 63.3374 81.12 63.1614 81.12C62.8094 81.12 62.5374 81.048 62.3454 80.904C62.1694 80.76 62.0814 80.544 62.0814 80.256V72.456Z" fill="white"/>
<path d="M73.7884 66.408C73.7884 66.072 73.9084 65.792 74.1484 65.568C74.3884 65.328 74.6844 65.208 75.0364 65.208C75.4044 65.208 75.7004 65.328 75.9244 65.568C76.1484 65.792 76.2604 66.072 76.2604 66.408C76.2604 66.744 76.1484 67.032 75.9244 67.272C75.7004 67.496 75.4044 67.608 75.0364 67.608C74.6844 67.608 74.3884 67.496 74.1484 67.272C73.9084 67.032 73.7884 66.744 73.7884 66.408ZM74.0764 74.664H75.9964V80.952C75.9164 80.984 75.7964 81.016 75.6364 81.048C75.4764 81.096 75.3004 81.12 75.1084 81.12C74.7724 81.12 74.5164 81.056 74.3404 80.928C74.1644 80.784 74.0764 80.56 74.0764 80.256V74.664ZM75.9964 75.6H74.0764V69.96C74.1564 69.928 74.2764 69.896 74.4364 69.864C74.6124 69.816 74.7964 69.792 74.9884 69.792C75.3244 69.792 75.5724 69.864 75.7324 70.008C75.9084 70.136 75.9964 70.36 75.9964 70.68V75.6Z" fill="white"/>
<path d="M79.9843 74.664L81.9043 74.952V80.952C81.8243 80.984 81.7043 81.016 81.5443 81.048C81.3843 81.096 81.2083 81.12 81.0163 81.12C80.6803 81.12 80.4243 81.056 80.2483 80.928C80.0723 80.784 79.9843 80.56 79.9843 80.256V74.664ZM81.9043 75.864L79.9843 75.6V65.448C80.0643 65.416 80.1843 65.384 80.3443 65.352C80.5203 65.304 80.6963 65.28 80.8723 65.28C81.2243 65.28 81.4803 65.352 81.6403 65.496C81.8163 65.624 81.9043 65.84 81.9043 66.144V75.864Z" fill="white"/>
<path d="M85.5774 66.408C85.5774 66.072 85.6974 65.792 85.9374 65.568C86.1774 65.328 86.4734 65.208 86.8254 65.208C87.1934 65.208 87.4894 65.328 87.7134 65.568C87.9374 65.792 88.0494 66.072 88.0494 66.408C88.0494 66.744 87.9374 67.032 87.7134 67.272C87.4894 67.496 87.1934 67.608 86.8254 67.608C86.4734 67.608 86.1774 67.496 85.9374 67.272C85.6974 67.032 85.5774 66.744 85.5774 66.408ZM85.8654 74.664H87.7854V80.952C87.7054 80.984 87.5854 81.016 87.4254 81.048C87.2654 81.096 87.0894 81.12 86.8974 81.12C86.5614 81.12 86.3054 81.056 86.1294 80.928C85.9534 80.784 85.8654 80.56 85.8654 80.256V74.664ZM87.7854 75.6H85.8654V69.96C85.9454 69.928 86.0654 69.896 86.2254 69.864C86.4014 69.816 86.5854 69.792 86.7774 69.792C87.1134 69.792 87.3614 69.864 87.5214 70.008C87.6974 70.136 87.7854 70.36 87.7854 70.68V75.6Z" fill="white"/>
<path d="M96.2625 81.312C95.5745 81.312 94.9265 81.208 94.3185 81C93.7265 80.808 93.2945 80.592 93.0225 80.352V78.576C93.3425 78.88 93.7425 79.152 94.2225 79.392C94.7185 79.616 95.3105 79.728 95.9985 79.728C97.1185 79.728 98.0145 79.392 98.6865 78.72C99.3745 78.032 99.7185 76.936 99.7185 75.432C99.7185 74.376 99.5425 73.544 99.1905 72.936C98.8545 72.312 98.3985 71.864 97.8225 71.592C97.2625 71.32 96.6545 71.184 95.9985 71.184C95.4225 71.184 94.9345 71.256 94.5345 71.4C94.1345 71.544 93.7745 71.704 93.4545 71.88V79.848H91.5345V71.928C91.5345 71.608 91.5905 71.352 91.7025 71.16C91.8145 70.968 92.0465 70.768 92.3985 70.56C92.8305 70.32 93.3425 70.104 93.9345 69.912C94.5425 69.704 95.2305 69.6 95.9985 69.6C97.0545 69.6 98.0065 69.808 98.8545 70.224C99.7185 70.624 100.398 71.256 100.894 72.12C101.406 72.968 101.662 74.072 101.662 75.432C101.662 76.744 101.43 77.84 100.966 78.72C100.518 79.584 99.8865 80.232 99.0705 80.664C98.2545 81.096 97.3185 81.312 96.2625 81.312ZM93.4545 79.2V85.32C93.3745 85.352 93.2545 85.384 93.0945 85.416C92.9345 85.464 92.7585 85.488 92.5665 85.488C92.2305 85.488 91.9745 85.416 91.7985 85.272C91.6225 85.128 91.5345 84.904 91.5345 84.6V79.152L93.4545 79.2Z" fill="white"/>
<path d="M104.468 66.408C104.468 66.072 104.588 65.792 104.828 65.568C105.068 65.328 105.364 65.208 105.716 65.208C106.084 65.208 106.38 65.328 106.604 65.568C106.828 65.792 106.94 66.072 106.94 66.408C106.94 66.744 106.828 67.032 106.604 67.272C106.38 67.496 106.084 67.608 105.716 67.608C105.364 67.608 105.068 67.496 104.828 67.272C104.588 67.032 104.468 66.744 104.468 66.408ZM104.756 74.664H106.676V80.952C106.596 80.984 106.476 81.016 106.316 81.048C106.156 81.096 105.98 81.12 105.788 81.12C105.452 81.12 105.196 81.056 105.02 80.928C104.844 80.784 104.756 80.56 104.756 80.256V74.664ZM106.676 75.6H104.756V69.96C104.836 69.928 104.956 69.896 105.116 69.864C105.292 69.816 105.476 69.792 105.668 69.792C106.004 69.792 106.252 69.864 106.412 70.008C106.588 70.136 106.676 70.36 106.676 70.68V75.6Z" fill="white"/>
<path d="M120.025 73.68V76.128H118.105V73.776C118.105 72.88 117.849 72.224 117.337 71.808C116.841 71.392 116.169 71.184 115.321 71.184C114.681 71.184 114.113 71.264 113.617 71.424C113.121 71.584 112.697 71.768 112.345 71.976V76.128H110.425V72.072C110.425 71.736 110.489 71.464 110.617 71.256C110.761 71.032 111.001 70.816 111.337 70.608C111.753 70.368 112.305 70.144 112.993 69.936C113.681 69.712 114.457 69.6 115.321 69.6C116.777 69.6 117.921 69.936 118.753 70.608C119.601 71.264 120.025 72.288 120.025 73.68ZM110.425 74.808H112.345V80.952C112.265 80.984 112.145 81.016 111.985 81.048C111.825 81.096 111.649 81.12 111.457 81.12C111.121 81.12 110.865 81.056 110.689 80.928C110.513 80.784 110.425 80.56 110.425 80.256V74.808ZM118.105 74.808H120.025V80.952C119.945 80.984 119.817 81.016 119.641 81.048C119.481 81.096 119.313 81.12 119.137 81.12C118.785 81.12 118.521 81.056 118.345 80.928C118.185 80.784 118.105 80.56 118.105 80.256V74.808Z" fill="white"/>
<path d="M127.58 79.752C128.252 79.752 128.804 79.688 129.236 79.56C129.684 79.416 130.004 79.28 130.196 79.152V75.672L127.22 75.984C126.388 76.048 125.772 76.232 125.372 76.536C124.972 76.84 124.772 77.28 124.772 77.856C124.772 78.448 125.004 78.912 125.468 79.248C125.948 79.584 126.652 79.752 127.58 79.752ZM127.556 69.6C128.948 69.6 130.052 69.912 130.868 70.536C131.684 71.16 132.092 72.144 132.092 73.488V79.176C132.092 79.528 132.02 79.8 131.876 79.992C131.748 80.168 131.548 80.336 131.276 80.496C130.892 80.704 130.38 80.896 129.74 81.072C129.1 81.248 128.38 81.336 127.58 81.336C126.076 81.336 124.908 81.04 124.076 80.448C123.26 79.856 122.852 79 122.852 77.88C122.852 76.84 123.196 76.048 123.884 75.504C124.588 74.944 125.556 74.608 126.788 74.496L130.196 74.16V73.488C130.196 72.688 129.956 72.104 129.476 71.736C128.996 71.368 128.348 71.184 127.532 71.184C126.876 71.184 126.244 71.28 125.636 71.472C125.044 71.664 124.516 71.88 124.052 72.12C123.924 72.008 123.804 71.88 123.692 71.736C123.596 71.576 123.548 71.416 123.548 71.256C123.548 70.84 123.78 70.52 124.244 70.296C124.676 70.072 125.172 69.904 125.732 69.792C126.308 69.664 126.916 69.6 127.556 69.6Z" fill="white"/>
<path d="M43.7681 104.648L50.7521 95.384C50.8961 95.352 51.0561 95.328 51.2321 95.312C51.4241 95.28 51.5921 95.264 51.7361 95.264C51.9601 95.264 52.1681 95.296 52.3601 95.36C52.5681 95.424 52.7361 95.544 52.8641 95.72C52.9921 95.88 53.0561 96.12 53.0561 96.44V104.84H55.4561C55.5041 104.92 55.5521 105.032 55.6001 105.176C55.6481 105.304 55.6721 105.456 55.6721 105.632C55.6721 105.888 55.6081 106.088 55.4801 106.232C55.3521 106.376 55.1681 106.448 54.9281 106.448H53.0561V110.048C52.9761 110.064 52.8561 110.088 52.6961 110.12C52.5521 110.168 52.3921 110.192 52.2161 110.192C51.8801 110.192 51.6241 110.12 51.4481 109.976C51.2721 109.832 51.1841 109.624 51.1841 109.352V106.448H44.2481C44.0881 106.368 43.9441 106.224 43.8161 106.016C43.7041 105.808 43.6481 105.576 43.6481 105.32C43.6481 105.176 43.6561 105.056 43.6721 104.96C43.7041 104.848 43.7361 104.744 43.7681 104.648ZM51.2081 104.84L51.2561 97.28H51.2081L45.8801 104.84H51.2081Z" fill="white"/>
<path d="M63.0892 101.48H65.0572V109.808L64.1452 110C63.8412 110 63.5852 109.904 63.3772 109.712C63.1852 109.504 63.0892 109.248 63.0892 108.944V101.48ZM64.1452 110V108.32H71.9452C72.0252 108.384 72.0892 108.488 72.1372 108.632C72.1852 108.776 72.2092 108.936 72.2092 109.112C72.2092 109.384 72.1372 109.6 71.9932 109.76C71.8492 109.92 71.6572 110 71.4172 110H64.1452ZM65.0572 102.92H63.0892V95.456C63.1692 95.424 63.2892 95.392 63.4492 95.36C63.6252 95.312 63.8092 95.288 64.0012 95.288C64.3532 95.288 64.6172 95.36 64.7932 95.504C64.9692 95.632 65.0572 95.856 65.0572 96.176V102.92Z" fill="white"/>
<path d="M78.7367 108.752C79.4087 108.752 79.9607 108.688 80.3927 108.56C80.8407 108.416 81.1607 108.28 81.3527 108.152V104.672L78.3767 104.984C77.5447 105.048 76.9287 105.232 76.5287 105.536C76.1287 105.84 75.9287 106.28 75.9287 106.856C75.9287 107.448 76.1607 107.912 76.6247 108.248C77.1047 108.584 77.8087 108.752 78.7367 108.752ZM78.7127 98.6C80.1047 98.6 81.2087 98.912 82.0247 99.536C82.8407 100.16 83.2487 101.144 83.2487 102.488V108.176C83.2487 108.528 83.1767 108.8 83.0327 108.992C82.9047 109.168 82.7047 109.336 82.4327 109.496C82.0487 109.704 81.5367 109.896 80.8967 110.072C80.2567 110.248 79.5367 110.336 78.7367 110.336C77.2327 110.336 76.0647 110.04 75.2327 109.448C74.4167 108.856 74.0087 108 74.0087 106.88C74.0087 105.84 74.3527 105.048 75.0407 104.504C75.7447 103.944 76.7127 103.608 77.9447 103.496L81.3527 103.16V102.488C81.3527 101.688 81.1127 101.104 80.6327 100.736C80.1527 100.368 79.5047 100.184 78.6887 100.184C78.0327 100.184 77.4007 100.28 76.7927 100.472C76.2007 100.664 75.6727 100.88 75.2087 101.12C75.0807 101.008 74.9607 100.88 74.8487 100.736C74.7527 100.576 74.7047 100.416 74.7047 100.256C74.7047 99.84 74.9367 99.52 75.4007 99.296C75.8327 99.072 76.3287 98.904 76.8887 98.792C77.4647 98.664 78.0727 98.6 78.7127 98.6Z" fill="white"/>
<path d="M97.0492 104.456C97.0492 105.64 96.8252 106.672 96.3772 107.552C95.9292 108.432 95.2972 109.112 94.4812 109.592C93.6652 110.072 92.7052 110.312 91.6012 110.312C90.4972 110.312 89.5292 110.072 88.6972 109.592C87.8812 109.112 87.2492 108.432 86.8012 107.552C86.3532 106.672 86.1292 105.64 86.1292 104.456C86.1292 103.256 86.3532 102.224 86.8012 101.36C87.2652 100.48 87.9052 99.8 88.7212 99.32C89.5532 98.84 90.5132 98.6 91.6012 98.6C92.6892 98.6 93.6412 98.84 94.4572 99.32C95.2732 99.8 95.9052 100.48 96.3532 101.36C96.8172 102.224 97.0492 103.256 97.0492 104.456ZM91.6012 100.184C90.5292 100.184 89.6732 100.568 89.0332 101.336C88.4092 102.088 88.0972 103.128 88.0972 104.456C88.0972 105.8 88.4012 106.848 89.0092 107.6C89.6332 108.352 90.4972 108.728 91.6012 108.728C92.6892 108.728 93.5372 108.352 94.1452 107.6C94.7692 106.832 95.0812 105.784 95.0812 104.456C95.0812 103.128 94.7692 102.088 94.1452 101.336C93.5372 100.568 92.6892 100.184 91.6012 100.184Z" fill="white"/>
<path d="M107.843 107.048C107.843 108.072 107.467 108.872 106.715 109.448C105.963 110.024 104.875 110.312 103.451 110.312C102.235 110.312 101.243 110.128 100.475 109.76C99.7069 109.376 99.3229 108.96 99.3229 108.512C99.3229 108.32 99.3709 108.136 99.4669 107.96C99.5789 107.768 99.7389 107.616 99.9469 107.504C100.379 107.808 100.883 108.088 101.459 108.344C102.035 108.6 102.691 108.728 103.427 108.728C105.091 108.728 105.923 108.168 105.923 107.048C105.923 106.584 105.779 106.208 105.491 105.92C105.219 105.616 104.811 105.4 104.267 105.272L102.275 104.744C101.299 104.504 100.587 104.136 100.139 103.64C99.6909 103.128 99.4669 102.496 99.4669 101.744C99.4669 100.896 99.8109 100.16 100.499 99.536C101.187 98.912 102.235 98.6 103.643 98.6C104.395 98.6 105.051 98.68 105.611 98.84C106.171 98.984 106.603 99.184 106.907 99.44C107.227 99.68 107.387 99.944 107.387 100.232C107.387 100.44 107.331 100.624 107.219 100.784C107.123 100.944 106.987 101.064 106.811 101.144C106.619 101.016 106.371 100.88 106.067 100.736C105.779 100.576 105.435 100.448 105.035 100.352C104.635 100.24 104.195 100.184 103.715 100.184C103.011 100.184 102.443 100.32 102.011 100.592C101.579 100.864 101.363 101.248 101.363 101.744C101.363 102.096 101.483 102.408 101.723 102.68C101.979 102.936 102.379 103.128 102.923 103.256L104.579 103.664C105.667 103.92 106.483 104.328 107.027 104.888C107.571 105.432 107.843 106.152 107.843 107.048Z" fill="white"/>
<path d="M47.8961 124.408L47.2481 125.824L46.8401 130.36C47.1121 130.216 47.4881 130.08 47.9681 129.952C48.4641 129.808 48.9841 129.736 49.5281 129.736C50.4881 129.736 51.3521 129.92 52.1201 130.288C52.8881 130.64 53.4961 131.168 53.9441 131.872C54.4081 132.56 54.6401 133.416 54.6401 134.44C54.6401 135.368 54.4241 136.2 53.9921 136.936C53.5761 137.672 52.9601 138.256 52.1441 138.688C51.3441 139.104 50.3601 139.312 49.1921 139.312C48.2801 139.312 47.4801 139.208 46.7921 139C46.1041 138.792 45.5681 138.536 45.1841 138.232C44.8001 137.928 44.6081 137.632 44.6081 137.344C44.6081 137.088 44.6881 136.864 44.8481 136.672C45.0241 136.48 45.2001 136.352 45.3761 136.288C45.7281 136.592 46.2241 136.904 46.8641 137.224C47.5041 137.544 48.2801 137.704 49.1921 137.704C50.2961 137.704 51.1521 137.4 51.7601 136.792C52.3681 136.168 52.6721 135.384 52.6721 134.44C52.6721 133.464 52.3601 132.704 51.7361 132.16C51.1121 131.616 50.2961 131.344 49.2881 131.344C48.7281 131.344 48.2161 131.432 47.7521 131.608C47.2881 131.784 46.8561 131.984 46.4561 132.208C46.0241 132.176 45.6721 132.048 45.4001 131.824C45.1441 131.584 45.0161 131.28 45.0161 130.912C45.0161 130.816 45.0161 130.696 45.0161 130.552C45.0321 130.392 45.0481 130.24 45.0641 130.096L45.4721 125.512C45.5041 125.176 45.6081 124.912 45.7841 124.72C45.9601 124.512 46.2161 124.408 46.5521 124.408H47.8961ZM46.8881 126.04V124.408H53.8961C53.9441 124.472 53.9921 124.576 54.0401 124.72C54.0881 124.864 54.1121 125.016 54.1121 125.176C54.1121 125.432 54.0481 125.64 53.9201 125.8C53.7921 125.96 53.6081 126.04 53.3681 126.04H46.8881Z" fill="white"/>
<path d="M71.1589 135.208C71.0469 135.288 70.8949 135.36 70.7029 135.424C70.5269 135.488 70.3269 135.52 70.1029 135.52C69.8469 135.52 69.6149 135.48 69.4069 135.4C69.2149 135.32 69.0789 135.192 68.9989 135.016C68.1509 133.224 67.4069 131.584 66.7669 130.096C66.1429 128.608 65.6389 127.376 65.2549 126.4H65.1589C65.1109 127.6 65.0549 128.72 64.9909 129.76C64.9429 130.8 64.8869 131.808 64.8229 132.784C64.7589 133.744 64.6949 134.736 64.6309 135.76C64.5829 136.768 64.5189 137.848 64.4389 139C64.3429 139.032 64.2149 139.064 64.0549 139.096C63.9109 139.128 63.7509 139.144 63.5749 139.144C63.2229 139.144 62.9749 139.072 62.8309 138.928C62.6869 138.768 62.6149 138.56 62.6149 138.304C62.6149 138.112 62.6309 137.672 62.6629 136.984C62.7109 136.28 62.7589 135.424 62.8069 134.416C62.8709 133.408 62.9429 132.336 63.0229 131.2C63.1029 130.048 63.1829 128.92 63.2629 127.816C63.3589 126.696 63.4469 125.688 63.5269 124.792C63.6549 124.68 63.8389 124.576 64.0789 124.48C64.3189 124.384 64.5909 124.336 64.8949 124.336C65.2629 124.336 65.5749 124.408 65.8309 124.552C66.0869 124.696 66.2869 124.92 66.4309 125.224C66.8469 126.04 67.2629 126.928 67.6789 127.888C68.0949 128.848 68.5029 129.808 68.9029 130.768C69.3029 131.728 69.6869 132.632 70.0549 133.48H70.1509C70.8549 131.784 71.5509 130.152 72.2389 128.584C72.9429 127.016 73.5349 125.68 74.0149 124.576C74.1589 124.496 74.3429 124.44 74.5669 124.408C74.7909 124.36 74.9989 124.336 75.1909 124.336C75.5589 124.336 75.8469 124.4 76.0549 124.528C76.2789 124.64 76.4229 124.832 76.4869 125.104C76.5509 125.376 76.6229 125.84 76.7029 126.496C76.7829 127.152 76.8629 127.928 76.9429 128.824C77.0229 129.704 77.0949 130.632 77.1589 131.608C77.2389 132.584 77.3109 133.544 77.3749 134.488C77.4389 135.432 77.4949 136.288 77.5429 137.056C77.6069 137.808 77.6469 138.408 77.6629 138.856C77.5189 138.952 77.3669 139.024 77.2069 139.072C77.0469 139.12 76.8629 139.144 76.6549 139.144C76.4149 139.144 76.1989 139.088 76.0069 138.976C75.8309 138.848 75.7269 138.624 75.6949 138.304C75.5989 136.752 75.5029 135.224 75.4069 133.72C75.3269 132.2 75.2549 130.808 75.1909 129.544C75.1269 128.28 75.0709 127.248 75.0229 126.448H74.9269C74.5749 127.328 74.0949 128.464 73.4869 129.856C72.8789 131.232 72.1029 133.016 71.1589 135.208Z" fill="white"/>
<path d="M83.1499 136.528C82.8779 136.016 82.5499 135.328 82.1659 134.464C81.7819 133.584 81.3819 132.608 80.9659 131.536C80.5659 130.448 80.1819 129.344 79.8139 128.224C79.9259 128.064 80.0699 127.936 80.2459 127.84C80.4379 127.744 80.6379 127.696 80.8459 127.696C81.1179 127.696 81.3419 127.768 81.5179 127.912C81.6939 128.056 81.8379 128.296 81.9499 128.632C82.4299 129.976 82.9339 131.312 83.4619 132.64C83.9899 133.968 84.5739 135.344 85.2139 136.768H85.3099C85.6459 136.096 85.9979 135.256 86.3659 134.248C86.7339 133.24 87.0859 132.176 87.4219 131.056C87.7579 129.936 88.0379 128.88 88.2619 127.888C88.3739 127.84 88.4939 127.8 88.6219 127.768C88.7659 127.72 88.9179 127.696 89.0779 127.696C89.3499 127.696 89.5739 127.768 89.7499 127.912C89.9259 128.04 90.0139 128.24 90.0139 128.512C90.0139 128.768 89.9419 129.2 89.7979 129.808C89.6539 130.4 89.4539 131.096 89.1979 131.896C88.9579 132.68 88.6699 133.52 88.3339 134.416C88.0139 135.296 87.6619 136.168 87.2779 137.032C86.9099 137.88 86.5339 138.648 86.1499 139.336C85.4139 140.696 84.7419 141.736 84.1339 142.456C83.5259 143.192 82.9659 143.56 82.4539 143.56C82.0859 143.56 81.7979 143.464 81.5899 143.272C81.3979 143.08 81.2779 142.856 81.2299 142.6C81.5819 142.296 81.9739 141.888 82.4059 141.376C82.8539 140.88 83.2779 140.336 83.6779 139.744C84.0939 139.168 84.4299 138.616 84.6859 138.088C84.4139 138.008 84.1579 137.864 83.9179 137.656C83.6939 137.448 83.4379 137.072 83.1499 136.528Z" fill="white"/>
<path d="M96.4085 137.752C97.0805 137.752 97.6325 137.688 98.0645 137.56C98.5125 137.416 98.8325 137.28 99.0245 137.152V133.672L96.0485 133.984C95.2165 134.048 94.6005 134.232 94.2005 134.536C93.8005 134.84 93.6005 135.28 93.6005 135.856C93.6005 136.448 93.8325 136.912 94.2965 137.248C94.7765 137.584 95.4805 137.752 96.4085 137.752ZM96.3845 127.6C97.7765 127.6 98.8805 127.912 99.6965 128.536C100.513 129.16 100.921 130.144 100.921 131.488V137.176C100.921 137.528 100.849 137.8 100.705 137.992C100.577 138.168 100.377 138.336 100.105 138.496C99.7205 138.704 99.2085 138.896 98.5685 139.072C97.9285 139.248 97.2085 139.336 96.4085 139.336C94.9045 139.336 93.7365 139.04 92.9045 138.448C92.0885 137.856 91.6805 137 91.6805 135.88C91.6805 134.84 92.0245 134.048 92.7125 133.504C93.4165 132.944 94.3845 132.608 95.6165 132.496L99.0245 132.16V131.488C99.0245 130.688 98.7845 130.104 98.3045 129.736C97.8245 129.368 97.1765 129.184 96.3605 129.184C95.7045 129.184 95.0725 129.28 94.4645 129.472C93.8725 129.664 93.3445 129.88 92.8805 130.12C92.7525 130.008 92.6325 129.88 92.5205 129.736C92.4245 129.576 92.3765 129.416 92.3765 129.256C92.3765 128.84 92.6085 128.52 93.0725 128.296C93.5045 128.072 94.0005 127.904 94.5605 127.792C95.1365 127.664 95.7445 127.6 96.3845 127.6Z" fill="white"/>
<path d="M114.025 131.68V134.128H112.105V131.776C112.105 130.88 111.849 130.224 111.337 129.808C110.841 129.392 110.169 129.184 109.321 129.184C108.681 129.184 108.113 129.264 107.617 129.424C107.121 129.584 106.697 129.768 106.345 129.976V134.128H104.425V130.072C104.425 129.736 104.489 129.464 104.617 129.256C104.761 129.032 105.001 128.816 105.337 128.608C105.753 128.368 106.305 128.144 106.993 127.936C107.681 127.712 108.457 127.6 109.321 127.6C110.777 127.6 111.921 127.936 112.753 128.608C113.601 129.264 114.025 130.288 114.025 131.68ZM104.425 132.808H106.345V138.952C106.265 138.984 106.145 139.016 105.985 139.048C105.825 139.096 105.649 139.12 105.457 139.12C105.121 139.12 104.865 139.056 104.689 138.928C104.513 138.784 104.425 138.56 104.425 138.256V132.808ZM112.105 132.808H114.025V138.952C113.945 138.984 113.817 139.016 113.641 139.048C113.481 139.096 113.313 139.12 113.137 139.12C112.785 139.12 112.521 139.056 112.345 138.928C112.185 138.784 112.105 138.56 112.105 138.256V132.808Z" fill="white"/>
<path d="M126.572 131.32V134.08H124.652V131.464C124.652 130.68 124.42 130.104 123.956 129.736C123.508 129.368 122.908 129.184 122.156 129.184C121.66 129.184 121.18 129.264 120.716 129.424C120.252 129.584 119.86 129.768 119.54 129.976V134.08H117.62V130.072C117.62 129.752 117.684 129.48 117.812 129.256C117.956 129.032 118.196 128.816 118.532 128.608C118.964 128.336 119.508 128.104 120.164 127.912C120.836 127.704 121.508 127.6 122.18 127.6C122.996 127.6 123.716 127.728 124.34 127.984C124.964 128.224 125.428 128.56 125.732 128.992C125.828 129.088 125.908 129.176 125.972 129.256C126.036 129.336 126.1 129.44 126.164 129.568C126.276 129.76 126.372 130.008 126.452 130.312C126.532 130.616 126.572 130.952 126.572 131.32ZM133.604 131.368V134.08H131.684V131.464C131.684 130.68 131.46 130.104 131.012 129.736C130.564 129.368 129.964 129.184 129.212 129.184C128.652 129.184 128.108 129.304 127.58 129.544C127.068 129.768 126.604 130.096 126.188 130.528L125.42 129.136C125.836 128.72 126.38 128.36 127.052 128.056C127.724 127.752 128.492 127.6 129.356 127.6C130.22 127.6 130.964 127.736 131.588 128.008C132.228 128.28 132.724 128.696 133.076 129.256C133.428 129.816 133.604 130.52 133.604 131.368ZM117.62 132.808H119.54V138.952C119.46 138.984 119.34 139.016 119.18 139.048C119.02 139.096 118.844 139.12 118.652 139.12C118.316 139.12 118.06 139.056 117.884 138.928C117.708 138.784 117.62 138.56 117.62 138.256V132.808ZM124.652 132.808H126.572V138.952C126.492 138.984 126.364 139.016 126.188 139.048C126.028 139.096 125.86 139.12 125.684 139.12C125.332 139.12 125.068 139.056 124.892 138.928C124.732 138.784 124.652 138.56 124.652 138.256V132.808ZM131.684 132.808H133.604V138.952C133.524 138.984 133.396 139.016 133.22 139.048C133.06 139.096 132.892 139.12 132.716 139.12C132.364 139.12 132.1 139.056 131.924 138.928C131.764 138.784 131.684 138.56 131.684 138.256V132.808Z" fill="white"/>
<path d="M141.174 137.752C141.846 137.752 142.398 137.688 142.83 137.56C143.278 137.416 143.598 137.28 143.79 137.152V133.672L140.814 133.984C139.982 134.048 139.366 134.232 138.966 134.536C138.566 134.84 138.366 135.28 138.366 135.856C138.366 136.448 138.598 136.912 139.062 137.248C139.542 137.584 140.246 137.752 141.174 137.752ZM141.15 127.6C142.542 127.6 143.646 127.912 144.462 128.536C145.278 129.16 145.686 130.144 145.686 131.488V137.176C145.686 137.528 145.614 137.8 145.47 137.992C145.342 138.168 145.142 138.336 144.87 138.496C144.486 138.704 143.974 138.896 143.334 139.072C142.694 139.248 141.974 139.336 141.174 139.336C139.67 139.336 138.502 139.04 137.67 138.448C136.854 137.856 136.446 137 136.446 135.88C136.446 134.84 136.79 134.048 137.478 133.504C138.182 132.944 139.15 132.608 140.382 132.496L143.79 132.16V131.488C143.79 130.688 143.55 130.104 143.07 129.736C142.59 129.368 141.942 129.184 141.126 129.184C140.47 129.184 139.838 129.28 139.23 129.472C138.638 129.664 138.11 129.88 137.646 130.12C137.518 130.008 137.398 129.88 137.286 129.736C137.19 129.576 137.142 129.416 137.142 129.256C137.142 128.84 137.374 128.52 137.838 128.296C138.27 128.072 138.766 127.904 139.326 127.792C139.902 127.664 140.51 127.6 141.15 127.6Z" fill="white"/>
<path d="M151.111 129.976V133.768H149.191V130.12C149.191 129.752 149.255 129.464 149.383 129.256C149.527 129.032 149.759 128.816 150.079 128.608C150.495 128.336 151.063 128.104 151.783 127.912C152.503 127.704 153.303 127.6 154.183 127.6C155.463 127.6 156.103 127.92 156.103 128.56C156.103 128.72 156.079 128.872 156.031 129.016C155.983 129.144 155.919 129.256 155.839 129.352C155.679 129.32 155.471 129.288 155.215 129.256C154.959 129.224 154.703 129.208 154.447 129.208C153.711 129.208 153.063 129.288 152.503 129.448C151.943 129.592 151.479 129.768 151.111 129.976ZM149.191 132.664L151.111 132.952V138.952C151.031 138.984 150.911 139.016 150.751 139.048C150.591 139.096 150.415 139.12 150.223 139.12C149.887 139.12 149.631 139.056 149.455 138.928C149.279 138.784 149.191 138.56 149.191 138.256V132.664Z" fill="white"/>
<g clip-path="url(#clip4_43_593)">
<mask id="mask1_43_593" style="mask-type:luminance" maskUnits="userSpaceOnUse" x="9" y="96" width="22" height="16">
<path d="M9 96H30.3333V112H9V96Z" fill="white"/>
</mask>
<g mask="url(#mask1_43_593)">
<path fill-rule="evenodd" clip-rule="evenodd" d="M7.6665 96H31.6665V112H7.6665V96Z" fill="#CE1126"/>
<path fill-rule="evenodd" clip-rule="evenodd" d="M7.6665 99.9766H31.6665V108.023H7.6665V99.9766Z" fill="#002868"/>
<path fill-rule="evenodd" clip-rule="evenodd" d="M23.1131 104C23.1131 104.914 22.7499 105.791 22.1036 106.437C21.4572 107.083 20.5805 107.447 19.6664 107.447C18.7523 107.447 17.8756 107.083 17.2292 106.437C16.5829 105.791 16.2197 104.914 16.2197 104C16.2197 103.086 16.5829 102.209 17.2292 101.563C17.8756 100.916 18.7523 100.553 19.6664 100.553C20.5805 100.553 21.4572 100.916 22.1036 101.563C22.7499 102.209 23.1131 103.086 23.1131 104Z" fill="white"/>
</g>
</g>
<defs>
<clipPath id="clip0_43_593">
<rect width="32" height="24" fill="white" transform="translate(0 30)"/>
</clipPath>
<clipPath id="clip1_43_593">
<rect width="21.3333" height="16" fill="white" transform="translate(9 65)"/>
</clipPath>
<clipPath id="clip2_43_593">
<rect width="21.3333" height="16" fill="white" transform="translate(10 125)"/>
</clipPath>
<clipPath id="clip3_43_593">
<rect width="21.3333" height="16" fill="white" transform="translate(9)"/>
</clipPath>
<clipPath id="clip4_43_593">
<rect width="21.3333" height="16" fill="white" transform="translate(9 96)"/>
</clipPath>
</defs>
</svg>
