<svg width="48" height="48" viewBox="0 0 48 48" fill="none" xmlns="http://www.w3.org/2000/svg">
<path d="M9.37886 45.8663C10.6191 46.7689 12.0589 47.2045 13.4883 47.2045C15.6394 47.2045 17.7623 46.2177 19.1285 44.3632C19.1325 44.3592 19.1362 44.3551 19.1397 44.3508C19.143 44.3464 19.1463 44.3421 19.1493 44.3378L19.1541 44.3309C19.1574 44.3264 19.1605 44.3219 19.1636 44.3175L23.9982 37.6551L28.8328 44.3175C28.8375 44.3247 28.8425 44.3303 28.8472 44.3365C28.8495 44.3394 28.8515 44.3423 28.8538 44.3456C31.131 47.4539 35.5067 48.1387 38.6211 45.8698C41.7391 43.6011 42.4362 39.2145 40.187 36.0818L40.182 36.0739C40.1779 36.0673 40.1746 36.0624 40.1695 36.0572L35.3454 29.3911L43.1613 26.8414C46.8328 25.6438 48.8507 21.6716 47.656 17.9908C46.4616 14.3102 42.5027 12.2873 38.8277 13.4814L31.012 16.0207L31.0085 7.77775C31.0048 3.90741 27.8623 0.75708 24.0017 0.75708C20.1411 0.75708 16.9986 3.90741 16.9951 7.78126L16.9881 16.0172L9.17219 13.4779C9.17219 13.4779 9.16533 13.4772 9.16154 13.4761C9.15662 13.4748 9.15157 13.4728 9.14763 13.4708C5.47967 12.2908 1.53492 14.3137 0.343801 17.9875C-0.847343 21.6611 1.15659 25.6192 4.81053 26.8274C4.81391 26.8284 4.81694 26.8296 4.81984 26.8309L4.83272 26.8358L4.83859 26.8379L12.651 29.3876L7.82687 36.0537C7.82512 36.0572 7.82252 36.0607 7.81991 36.0642C7.81725 36.0677 7.81465 36.0712 7.8129 36.0747C5.56024 39.2074 6.26091 43.5976 9.37886 45.8663Z" fill="#F365B1"/>
</svg>
