<svg width="48" height="49" viewBox="0 0 48 49" fill="none" xmlns="http://www.w3.org/2000/svg">
<path d="M24 0.6604C17.6308 0.6604 12.4675 5.82366 12.4675 12.1929C12.4675 12.7093 12.0489 13.1279 11.5325 13.1279C5.16326 13.1279 0 18.2912 0 24.6604C0 31.0296 5.16326 36.193 11.5325 36.193C12.0489 36.193 12.4675 36.6115 12.4675 37.1278C12.4675 43.4971 17.6308 48.6604 24 48.6604C30.3692 48.6604 35.5326 43.4971 35.5326 37.1278C35.5326 36.6115 35.9511 36.193 36.4674 36.193C42.8367 36.193 48 31.0296 48 24.6604C48 18.2912 42.8367 13.1279 36.4674 13.1279C35.9511 13.1279 35.5326 12.7093 35.5326 12.1929C35.5326 5.82366 30.3692 0.6604 24 0.6604Z" fill="#F46F65"/>
</svg>
