<svg width="49" height="48" viewBox="0 0 49 48" fill="none" xmlns="http://www.w3.org/2000/svg">
<rect x="0.0800781" width="48" height="48" rx="7.68" fill="#32AC72"/>
<path d="M24.0802 24.5601C23.0405 24.5601 22.0434 24.9731 21.3083 25.7082C20.5732 26.4433 20.1602 27.4404 20.1602 28.4801C20.1602 29.5197 20.5732 30.5168 21.3083 31.2519C22.0434 31.9871 23.0405 32.4001 24.0802 32.4001C25.1198 32.4001 26.1169 31.9871 26.852 31.2519C27.5872 30.5168 28.0002 29.5197 28.0002 28.4801C28.0002 27.4404 27.5872 26.4433 26.852 25.7082C26.1169 24.9731 25.1198 24.5601 24.0802 24.5601ZM22.4002 28.4801C22.4002 28.0345 22.5772 27.6072 22.8922 27.2921C23.2073 26.9771 23.6346 26.8001 24.0802 26.8001C24.5257 26.8001 24.953 26.9771 25.2681 27.2921C25.5832 27.6072 25.7602 28.0345 25.7602 28.4801C25.7602 28.9256 25.5832 29.3529 25.2681 29.668C24.953 29.9831 24.5257 30.1601 24.0802 30.1601C23.6346 30.1601 23.2073 29.9831 22.8922 29.668C22.5772 29.3529 22.4002 28.9256 22.4002 28.4801Z" fill="white"/>
<path d="M30.2694 16.2899L26.709 11.2981L13.6173 21.7567L12.8915 21.7488V21.76H12.3203V35.2H35.8403V21.76H34.7629L32.6192 15.4891L30.2694 16.2899ZM32.3963 21.76H21.165L29.5302 18.9085L31.2349 18.3631L32.3963 21.76ZM28.0563 17.0448L19.4211 19.9882L26.2598 14.5248L28.0563 17.0448ZM14.5603 30.9093V26.0485C15.0328 25.8811 15.462 25.6103 15.8166 25.2559C16.1712 24.9015 16.4422 24.4724 16.6099 24H31.5507C31.7183 24.4726 31.9893 24.9018 32.3439 25.2564C32.6985 25.611 33.1277 25.882 33.6003 26.0496V30.9104C33.1277 31.078 32.6985 31.349 32.3439 31.7036C31.9893 32.0582 31.7183 32.4874 31.5507 32.96H16.6122C16.4444 32.487 16.1731 32.0575 15.8181 31.7027C15.4631 31.3479 15.0334 31.0768 14.5603 30.9093Z" fill="white"/>
</svg>
