<svg width="49" height="48" viewBox="0 0 49 48" fill="none" xmlns="http://www.w3.org/2000/svg">
<rect x="0.839844" width="48" height="48" rx="7.68" fill="#454EAA"/>
<path d="M19.5981 22.3873L20.7853 21.2001L19.5981 20.0129L20.7853 18.8257L23.1597 21.2001L20.7853 23.5745L19.5981 22.3873ZM16.4397 20.6401C16.4733 20.6401 16.4957 20.6513 16.5293 20.6513C17.1974 18.9941 18.3455 17.5745 19.8263 16.5747C21.3071 15.5748 23.053 15.0404 24.8397 15.0401C27.2925 15.0401 29.4989 16.0257 31.1229 17.6161C31.2909 16.9441 31.6269 16.1713 32.0301 15.4209C30.0142 13.7246 27.4631 12.7963 24.8285 12.8001C19.3629 12.8001 14.8157 16.7313 13.8413 21.9169C14.4685 21.1329 15.4205 20.6401 16.4397 20.6401ZM34.9197 22.3201C34.4493 22.3201 34.0013 22.2193 33.5869 22.0737C33.7213 22.6897 33.7997 23.3393 33.7997 24.0001C33.7997 28.9505 29.7901 32.9601 24.8397 32.9601C21.0765 32.9601 17.8621 30.6417 16.5293 27.3489C16.4957 27.3489 16.4733 27.3601 16.4397 27.3601C15.8573 27.3601 15.2749 27.2033 14.7597 26.9121C14.4013 26.7105 14.0989 26.4417 13.8413 26.1281C14.8381 31.2913 19.3629 35.2001 24.8173 35.2001C31.0221 35.2001 36.0397 30.1825 36.0397 24.0001C36.0397 23.3841 35.9725 22.7793 35.8829 22.1857C35.5687 22.2703 35.2451 22.3154 34.9197 22.3201ZM34.9197 13.9201C34.9197 13.9201 32.6797 17.1681 32.6797 18.4001C32.6797 19.6321 33.6877 20.6401 34.9197 20.6401C36.1517 20.6401 37.1597 19.6321 37.1597 18.4001C37.1597 17.1681 34.9197 13.9201 34.9197 13.9201ZM28.8941 18.8257L26.5197 21.2001L28.8941 23.5745L30.0813 22.3873L28.8941 21.2001L30.0813 20.0129L28.8941 18.8257ZM20.9869 29.6001C21.7597 28.2673 23.1933 27.3601 24.8397 27.3601C26.4861 27.3601 27.9197 28.2673 28.6925 29.6001H30.5741C29.6781 27.3041 27.4493 25.6801 24.8397 25.6801C23.8653 25.6801 22.9357 25.9041 22.1181 26.3185L18.1085 24.0001C18.1085 23.4177 17.8173 22.8577 17.2797 22.5553C16.4733 22.0961 15.4541 22.3649 14.9837 23.1713C14.5245 23.9777 14.7933 24.9969 15.5997 25.4673C16.1373 25.7809 16.7757 25.7473 17.2685 25.4673L20.5949 27.3937C19.9565 27.9873 19.4413 28.7489 19.1053 29.6001H20.9869Z" fill="white"/>
</svg>
