<svg width="49" height="48" viewBox="0 0 49 48" fill="none" xmlns="http://www.w3.org/2000/svg">
<rect x="0.160156" width="48" height="48" rx="7.68" fill="#F365B1"/>
<path d="M21.38 35.2001C20.8312 33.4109 20.0035 32.0764 18.8964 31.1977C17.236 29.8801 14.5978 30.6993 13.6234 29.3397C12.649 27.98 14.3061 25.4801 14.8874 24.0051C15.4692 22.5301 12.6586 22.0087 12.9867 21.5898C13.2051 21.3104 14.6258 20.5051 17.2478 19.1728C17.9926 14.9247 20.7438 12.8 25.5027 12.8C32.6405 12.8 35.3598 18.8514 35.3598 22.7009C35.3598 26.5492 32.067 30.6954 27.3765 31.5897C26.957 32.2001 27.5618 33.4041 29.1909 35.2001" stroke="white" stroke-width="2.61352" stroke-linecap="round" stroke-linejoin="round"/>
<path d="M21.64 18.6801C21.2738 20.0991 21.3824 21.0959 21.9665 21.6699C22.55 22.2433 23.5446 22.6191 24.9502 22.7955C24.631 24.6261 25.0202 25.4846 26.1167 25.3715C27.2132 25.2589 27.8723 24.8031 28.0935 24.0051C29.8071 24.4867 30.7361 24.0835 30.88 22.7955C31.0956 20.8635 30.054 19.3229 29.6268 19.3229C29.2 19.3229 28.0935 19.2709 28.0935 18.6801C28.0935 18.0893 26.801 17.7561 25.6345 17.7561C24.468 17.7561 25.1697 16.9693 23.5681 17.2801C22.5002 17.4873 21.8573 17.9537 21.64 18.6801Z" stroke="white" stroke-width="2.24" stroke-linejoin="round"/>
<path d="M27.7996 24.8401C27.2301 25.1934 26.4489 25.7809 26.1196 26.2401C25.2969 27.3881 24.63 28.087 24.4844 28.8206" stroke="white" stroke-width="2.24" stroke-linecap="round"/>
</svg>
