<svg width="48" height="47" viewBox="0 0 48 47" fill="none" xmlns="http://www.w3.org/2000/svg">
<path d="M9.37886 45.318C10.6191 46.2206 12.0589 46.6562 13.4883 46.6562C15.6394 46.6562 17.7623 45.6694 19.1285 43.8148C19.1325 43.8109 19.1362 43.8068 19.1397 43.8024C19.143 43.7981 19.1463 43.7938 19.1493 43.7894L19.1541 43.7826C19.1574 43.7781 19.1605 43.7735 19.1636 43.7692L23.9982 37.1068L28.8328 43.7692C28.8375 43.7764 28.8425 43.782 28.8472 43.7882C28.8495 43.7911 28.8515 43.794 28.8538 43.7973C31.131 46.9056 35.5067 47.5904 38.6211 45.3215C41.7391 43.0528 42.4362 38.6661 40.187 35.5334L40.182 35.5256C40.1779 35.519 40.1746 35.514 40.1695 35.5089L35.3454 28.8427L43.1613 26.2931C46.8328 25.0954 48.8507 21.1233 47.656 17.4425C46.4616 13.7619 42.5027 11.7389 38.8277 12.9331L31.012 15.4723L31.0085 7.22941C31.0048 3.35907 27.8623 0.20874 24.0017 0.20874C20.1411 0.20874 16.9986 3.35907 16.9951 7.23292L16.9881 15.4688L9.17219 12.9295C9.17219 12.9295 9.16533 12.9288 9.16154 12.9278C9.15662 12.9264 9.15157 12.9245 9.14763 12.9225C5.47967 11.7424 1.53492 13.7654 0.343801 17.4392C-0.847343 21.1128 1.15659 25.0709 4.81053 26.279C4.81391 26.2801 4.81694 26.2813 4.81984 26.2825L4.83272 26.2875L4.83859 26.2896L12.651 28.8392L7.82687 35.5053C7.82512 35.5089 7.82252 35.5124 7.81991 35.5159C7.81725 35.5194 7.81465 35.5229 7.8129 35.5264C5.56024 38.6591 6.26091 43.0493 9.37886 45.318Z" fill="#454EAA"/>
</svg>
